<svg height='100px' width='100px'  fill="#000000" xmlns="http://www.w3.org/2000/svg" xmlns:xlink="http://www.w3.org/1999/xlink" version="1.1" x="0px" y="0px" viewBox="0 0 1024 1024" style="enable-background:new 0 0 1024 1024;" xml:space="preserve"><g><g><path d="M679.7,405.2c-18.3,17.2-152,151-167.7,241.4c-15.7-90.3-149.4-224.2-167.7-241.3    c17.3-128.4,78.3-242.9,167.7-328C601.3,162.3,662.4,276.8,679.7,405.2z"></path><g><path d="M672.6,398.1c-21.5,20.2-41.5,42.2-60.8,64.5c-31,35.8-60.8,73.6-83.7,115.2     c-11.4,20.6-21.6,42.8-25.7,66.1c6.4,0,12.9,0,19.3,0c-3.7-20.6-12.1-40.2-21.7-58.6c-10.8-20.8-23.7-40.5-37.5-59.6     c-25.7-35.5-54.2-69-84.4-100.7c-8.7-9.1-17.5-18.2-26.6-26.9c0.9,3.2,1.7,6.5,2.6,9.7c13-95.9,51.2-188,111.1-264.2     c16.6-21.1,34.6-40.9,54-59.4c-4.7,0-9.4,0-14.1,0c69.3,66.2,120.9,150,147.8,242.1c7.8,26.7,13.5,53.9,17.3,81.5     c0.7,5.4,7.6,8.3,12.3,7c5.8-1.6,7.7-6.9,7-12.3c-13.5-99.1-53.8-193.1-115.3-271.8c-16.8-21.5-35.2-41.8-55-60.6     c-4-3.8-10.2-3.8-14.1,0c-39,37.3-72.9,80.1-99.9,126.8c-27.4,47.4-48,99-60.6,152.4c-3.2,13.6-5.9,27.2-8,41     c-1.1,7.1-4.4,16.5,1.1,22.3c1,1.1,2.2,2.1,3.2,3.1c8.3,8.1,16.4,16.4,24.4,24.8c26.9,28.4,52.6,58.1,75.8,89.6     c23.9,32.4,47.9,68.1,58.5,106.5c1.2,4.2,2.1,8.4,2.9,12.7c1.7,9.5,17.6,9.6,19.3,0c3.6-19.9,11.1-37.4,20.3-54.9     c10.8-20.6,23.7-40.2,37.3-59c24.7-34.2,52.5-66.2,81.5-96.8c8.5-8.9,17.1-17.8,26-26.3C696.1,403.4,682,389.3,672.6,398.1z"></path></g></g><g><path d="M847.6,768.7c-85.7,105.8-206.7,166.1-332.3,177.8c-0.9,0.1-1.7,0.2-2.6,0.2c-0.2,0-0.4,0-0.7,0.1    c-0.2,0-0.4,0-0.7-0.1c-0.9-0.1-1.7-0.2-2.6-0.2c-125.6-11.7-246.6-72.1-332.3-177.8C89.2,661.1,55.6,527.6,72,400.4    c107.1,8.6,211.3,52.5,293.5,129.8c15.9,15,31.1,31.2,45.2,48.6c54,66.6,87.5,143.2,101.2,222.1c13.7-78.9,47.2-155.5,101.2-222.1    c14.2-17.5,29.3-33.7,45.2-48.7c82.2-77.2,186.4-121.2,293.5-129.7C968.4,527.6,934.8,661.1,847.6,768.7z"></path><g><path d="M840.5,761.6C792.7,820.4,732,867.3,662.7,898.1c-32.9,14.6-67.7,25.3-103.1,32.1     c-8.7,1.7-17.4,3.1-26.1,4.3c-8.1,1.1-16.7,2.8-24.8,2.1c-17.7-1.6-35.2-4.4-52.6-8c-71.5-15.1-139.7-46.4-196.9-91.9     c-61.7-49-110.8-112.8-142.3-185c-30.5-70-43.1-147.4-37.7-223.4c0.7-9.3,1.6-18.6,2.8-27.9c-3.3,3.3-6.7,6.7-10,10     c78.6,6.4,155.1,32.6,221.3,75.6c70.9,46.2,128.7,111.6,166.5,187.3c20.5,41.1,34.6,85.1,42.6,130.3c1.7,9.5,17.6,9.6,19.3,0     c14.4-82,50-159.6,103.4-223.5c52.7-63.1,121.3-112.3,198.5-141c41.3-15.4,84.6-25.1,128.5-28.7c-3.3-3.3-6.7-6.7-10-10     c12.6,99-5.4,200.7-53.1,288.6C875,714.6,858.8,739,840.5,761.6c-3.4,4.2-4.1,10,0,14.1c3.5,3.5,10.7,4.2,14.1,0     c66.7-82.6,106-184.4,110.9-290.5c1.3-28.3,0.1-56.7-3.5-84.9c-0.6-5-4.1-10.5-10-10c-82.1,6.7-162.2,33.3-231.4,78.3     c-73.7,48-134.4,115.8-173.7,194.5c-21.3,42.6-36.3,88.2-44.6,135.1c6.4,0,12.9,0,19.3,0c-15-85.5-52.9-165.8-108.6-232.3     c-55-65.8-127-116.3-207.3-146.2c-43-16-88.1-25.7-133.8-29.4c-5.9-0.5-9.4,5-10,10c-10,78.6-1.1,159.5,26.5,233.8     c28.3,76.4,75.4,145.6,136.4,199.7c57.6,51,126.9,88.3,201.3,108.1c17.8,4.7,35.8,8.4,54.1,11.1c9.7,1.4,19.4,2.6,29.2,3.5     c8.3,0.8,17.4-1.2,25.6-2.3c37.5-5,74.3-14,109.7-27.4c72.5-27.4,138.3-71.5,190.6-128.8c6.7-7.3,13.1-14.8,19.3-22.4     c3.4-4.2,4.1-10,0-14.1C851.1,758.1,843.9,757.4,840.5,761.6z"></path></g></g></g></svg>